<svg height="467pt" viewBox="-17 0 467 467.48978" width="467pt" xmlns="http://www.w3.org/2000/svg"><path d="m6.246094 183.488281h24v240h-14c-3.316406 0-6 2.6875-6 6v32c0 3.316407 2.683594 6 6 6h400c3.3125 0 6-2.683593 6-6v-32c0-3.3125-2.6875-6-6-6h-14v-240h24c3.3125 0 6-2.683593 6-6v-63.898437c0-3.3125-2.6875-6-6-6h-420c-3.316406 0-6 2.6875-6 6v63.898437c0 3.316407 2.683594 6 6 6zm404 272h-388v-20h388zm-90-32h-98v-95.515625h98zm-110 0h-98v-95.515625h98zm180 0h-58v-101.515625c0-3.316406-2.6875-6-6-6h-220c-3.316406 0-6 2.683594-6 6v101.515625h-58v-240h348zm30-252h-408v-19.789062h408zm-408-51.898437h408v20.109375h-408zm0 0"/><path d="m66.246094 285.542969h300c3.3125 0 6-2.6875 6-6v-60c0-3.3125-2.6875-6-6-6h-300c-3.316406 0-6 2.6875-6 6v60c0 3.3125 2.683594 6 6 6zm6-60h288v48h-288zm0 0"/><path d="m104.003906 231.878906c-2.734375 0-4 .523438-5.769531 3.621094l-3.28125 5.683594-3.261719-5.683594c-1.765625-3.097656-2.785156-3.621094-5.519531-3.621094-2.5 0-3.925781 1.613282-3.925781 4.117188v24.199218c0 1.71875 1.574218 2.921876 4 2.921876 2.425781 0 4-1.199219 4-2.921876v-11.480468l1.832031 3.5c.511719 1.078125 1.613281 1.746094 2.804687 1.699218 1.269532.035157 2.46875-.589843 3.164063-1.652343l2.199219-3.378907v11.308594c0 1.71875 1.574218 2.917969 4 2.917969 2.425781 0 4-1.199219 4-2.917969v-24.203125c.046875-1.125-.386719-2.21875-1.199219-3.007812-.808594-.785157-1.917969-1.1875-3.042969-1.101563zm0 0"/><path d="m120.726562 231.878906c-6.863281 0-10.480468 3.800782-10.480468 10.4375v10.597656c0 6.636719 3.617187 10.441407 10.480468 10.441407 6.886719 0 10.519532-3.800781 10.519532-10.441407v-10.597656c0-6.632812-3.632813-10.4375-10.519532-10.4375zm2.519532 21.035156c0 2.660157-1.3125 3-2.519532 3-1.269531 0-2.480468-.355468-2.480468-3v-10.601562c0-2.640625 1.210937-3 2.480468-3 1.207032 0 2.519532.339844 2.519532 3zm0 0"/><path d="m151.882812 231.878906c-2.222656 0-2.839843 1.316406-3 1.898438l-4.601562 16.96875-4.636719-16.984375c-.160156-.566407-.777343-1.882813-3-1.882813-2.085937 0-5 1.351563-5 3.558594.007813.230469.046875.460938.109375.683594l7.5 24.453125c.53125 1.6875 2.507813 2.777343 5.035156 2.777343 2.527344 0 4.5-1.089843 5.035157-2.789062l7.453125-24.453125c.0625-.21875.101562-.445313.109375-.671875-.003907-2.207031-2.914063-3.558594-5.003907-3.558594zm0 0"/><path d="m161.246094 231.878906c-2.464844 0-4 1.15625-4 2.878906v25.433594c0 1.71875 1.574218 2.917969 4 2.917969 2.425781 0 4-1.199219 4-2.917969v-25.433594c0-1.722656-1.539063-2.878906-4-2.878906zm0 0"/><path d="m185.722656 239.488281c1.699219 0 2.878906-1.824219 2.878906-4.039062 0-2.167969-1.183593-3.960938-2.878906-3.960938h-14.238281c-.878906-.03125-1.734375.308594-2.351563.9375-.617187.632813-.9375 1.492188-.886718 2.371094v25.398437c-.050782.878907.269531 1.742188.886718 2.371094.617188.625 1.472657.964844 2.351563.929688h14.238281c1.699219 0 2.878906-1.792969 2.878906-3.960938 0-2.210937-1.183593-4.039062-2.878906-4.039062h-9.476562v-5h4.757812c1.65625 0 3-1.34375 3-3s-1.34375-3-3-3h-4.757812v-5zm0 0"/><path d="m215.644531 231.488281h-17.28125c-1.699219 0-2.878906 1.75-2.878906 3.960938 0 2.261719 1.183594 4.039062 2.878906 4.039062h4.882813v20.703125c0 1.71875 1.574218 2.917969 4 2.917969 2.425781 0 4-1.199219 4-2.917969v-20.703125h4.398437c1.695313 0 2.878907-1.777343 2.878907-4.039062-.003907-2.210938-1.1875-3.960938-2.878907-3.960938zm0 0"/><path d="m237.246094 231.878906c-2.464844 0-4 1.15625-4 2.878906v8.730469h-6v-8.730469c0-1.722656-1.539063-2.878906-4-2.878906-2.464844 0-4 1.15625-4 2.878906v25.433594c0 1.71875 1.574218 2.917969 4 2.917969 2.425781 0 4-1.199219 4-2.917969v-9.703125h6v9.703125c0 1.71875 1.574218 2.917969 4 2.917969 2.421875 0 4-1.199219 4-2.917969v-25.433594c0-1.722656-1.539063-2.878906-4-2.878906zm0 0"/><path d="m280.953125 234.417969c-.527344-1.6875-2.503906-2.78125-5.03125-2.78125s-4.5 1.09375-5.035156 2.789062l-6.894531 22.519531c-.441407-.855468-1.308594-1.410156-2.269532-1.457031h-9.476562v-5h4.753906c1.65625 0 3-1.339843 3-3 0-1.65625-1.34375-3-3-3h-4.753906v-5h9.476562c1.691406 0 2.878906-1.824219 2.878906-4.039062 0-2.167969-1.1875-3.960938-2.878906-3.960938h-14.238281c-.882813-.03125-1.734375.308594-2.351563.9375-.617187.632813-.9375 1.492188-.886718 2.371094v25.398437c-.050782.878907.269531 1.742188.886718 2.367188.617188.628906 1.46875.96875 2.351563.933594h14.238281c1.101563-.089844 2.050782-.804688 2.449219-1.835938 1.140625 1.019532 2.621094 1.574219 4.152344 1.554688 1.394531.09375 2.65625-.820313 3.003906-2.175782l1.160156-4.550781h6.910157l1.160156 4.507813c.382812 1.304687 1.648437 2.148437 3 2 2.089844 0 5-1.300782 5-3.5-.011719-.238282-.050782-.472656-.121094-.699219zm-6.640625 16.070312 1.609375-5.910156 1.609375 5.910156zm0 0"/><path d="m304.679688 231.488281h-17.277344c-1.695313 0-2.878906 1.75-2.878906 3.960938 0 2.261719 1.183593 4.039062 2.878906 4.039062h4.84375v20.703125c0 1.71875 1.574218 2.917969 4 2.917969 2.425781 0 4-1.199219 4-2.917969v-20.703125h4.433594c1.695312 0 2.878906-1.777343 2.878906-4.039062 0-2.210938-1.183594-3.960938-2.878906-3.960938zm0 0"/><path d="m325.636719 250.011719c2.875-1.558594 4.441406-4.753907 4.441406-8.769531 0-4.359376-1.878906-9.753907-10.835937-9.753907h-8.28125c-1.636719 0-2.714844 1.652344-2.714844 3.269531v25.433594c0 1.71875 1.574218 2.917969 4 2.917969 2.425781 0 4-1.199219 4-2.917969v-8.703125h1.066406l5.199219 10.136719c.546875 1.082031 1.671875 1.75 2.882812 1.710938 2.4375 0 4.921875-2.132813 4.921875-4.230469.007813-.421875-.105468-.839844-.324218-1.199219zm-6.390625-5.523438h-3v-5h3c1.644531 0 2.597656.226563 2.597656 2.5 0 2.277344-.957031 2.5-2.597656 2.5zm0 0"/><path d="m349.359375 239.488281c1.695313 0 2.878906-1.824219 2.878906-4.039062 0-2.167969-1.183593-3.960938-2.878906-3.960938h-14.238281c-1.964844-.097656-3.664063 1.351563-3.875 3.308594v25.398437c0 1.695313 1.722656 3.300782 3.875 3.300782h14.238281c1.695313 0 2.878906-1.792969 2.878906-3.960938 0-2.210937-1.183593-4.039062-2.878906-4.039062h-10.113281v-5h5.398437c1.65625 0 3-1.34375 3-3s-1.34375-3-3-3h-5.398437v-5zm0 0"/><path d="m238.246094 391.542969c3.3125 0 6-2.6875 6-6v-9c0-3.3125-2.6875-6-6-6-3.316406 0-6 2.6875-6 6v9c0 3.3125 2.683594 6 6 6zm0 0"/><path d="m194.246094 391.542969c3.3125 0 6-2.6875 6-6v-9c0-3.3125-2.6875-6-6-6-3.316406 0-6 2.6875-6 6v9c0 3.3125 2.683594 6 6 6zm0 0"/><path d="m247.167969 50.773438-3.617188 21.085937c-.382812 2.246094.542969 4.519531 2.386719 5.863281 1.847656 1.339844 4.292969 1.519532 6.3125.460938l18.9375-9.957032 18.9375 9.957032c2.019531 1.058594 4.46875.878906 6.3125-.460938 1.847656-1.34375 2.769531-3.617187 2.386719-5.863281l-3.617188-21.085937 15.328125-14.933594c1.636719-1.59375 2.226563-3.976563 1.519532-6.152344-.707032-2.171875-2.582032-3.753906-4.84375-4.082031l-21.167969-3.074219-9.464844-19.1875c-1.011719-2.046875-3.097656-3.34375-5.382813-3.34375-2.28125 0-4.367187 1.296875-5.378906 3.34375l-9.472656 19.1875-21.167969 3.074219c-2.261719.328125-4.140625 1.910156-4.847656 4.082031s-.117187 4.558594 1.515625 6.152344zm14.023437-16.824219c1.953125-.28125 3.644532-1.511719 4.515625-3.28125l5.484375-11.109375 5.484375 11.109375c.875 1.773437 2.5625 3 4.519531 3.28125l12.257813 1.785156-8.871094 8.644531c-1.414062 1.378906-2.058593 3.367188-1.722656 5.3125l2.09375 12.210938-10.96875-5.765625c-1.746094-.917969-3.835937-.917969-5.582031 0l-10.96875 5.765625 2.09375-12.210938c.335937-1.949218-.308594-3.933594-1.722656-5.3125l-8.875-8.648437zm0 0"/><path d="m357.0625 50.773438-3.617188 21.085937c-.386718 2.25.539063 4.523437 2.386719 5.867187 1.847657 1.34375 4.296875 1.519532 6.320313.457032l18.933594-9.957032 18.9375 9.957032c2.019531 1.0625 4.46875.882812 6.316406-.457032 1.847656-1.34375 2.773437-3.617187 2.386718-5.867187l-3.613281-21.085937 15.320313-14.933594c1.632812-1.59375 2.222656-3.976563 1.515625-6.152344-.703125-2.171875-2.582031-3.753906-4.839844-4.082031l-21.171875-3.074219-9.46875-19.1875c-1.011719-2.046875-3.097656-3.34375-5.378906-3.34375-2.285156 0-4.371094 1.296875-5.382813 3.34375l-9.460937 19.1875-21.171875 3.074219c-2.261719.328125-4.140625 1.910156-4.847657 4.082031-.707031 2.171875-.117187 4.558594 1.519532 6.152344zm14.023438-16.824219c1.957031-.28125 3.644531-1.511719 4.519531-3.28125l5.484375-11.109375 5.480468 11.109375c.875 1.773437 2.566407 3 4.519532 3.28125l12.261718 1.785156-8.871093 8.644531c-1.414063 1.378906-2.0625 3.367188-1.726563 5.3125l2.097656 12.210938-10.964843-5.765625c-1.75-.917969-3.835938-.917969-5.585938 0l-10.964843 5.765625 2.089843-12.210938c.332031-1.949218-.3125-3.933594-1.726562-5.3125l-8.875-8.648437zm0 0"/><path d="m137.273438 50.773438-3.617188 21.085937c-.386719 2.25.539062 4.523437 2.386719 5.867187 1.847656 1.339844 4.296875 1.519532 6.316406.457032l18.9375-9.957032 18.9375 9.957032c2.019531 1.0625 4.46875.882812 6.316406-.457032 1.847657-1.34375 2.773438-3.617187 2.386719-5.867187l-3.617188-21.085937 15.324219-14.933594c1.636719-1.59375 2.222657-3.976563 1.519531-6.152344-.707031-2.171875-2.585937-3.753906-4.84375-4.082031l-21.175781-3.074219-9.46875-19.1875c-1.011719-2.046875-3.09375-3.34375-5.378906-3.34375s-4.367187 1.296875-5.378906 3.34375l-9.472657 19.1875-21.171874 3.074219c-2.257813.328125-4.136719 1.910156-4.84375 4.082031-.703126 2.175781-.117188 4.558594 1.519531 6.152344zm14.023437-16.824219c1.953125-.28125 3.644531-1.507813 4.515625-3.28125l5.484375-11.109375 5.484375 11.109375c.875 1.769531 2.5625 3 4.515625 3.28125l12.261719 1.785156-8.871094 8.644531c-1.414062 1.378906-2.058594 3.367188-1.726562 5.3125l2.09375 12.210938-10.964844-5.765625c-1.75-.917969-3.835938-.917969-5.585938 0l-10.964844 5.765625 2.09375-12.210938c.332032-1.949218-.3125-3.933594-1.726562-5.3125l-8.871094-8.648437zm0 0"/><path d="m27.375 50.773438-3.613281 21.085937c-.386719 2.246094.539062 4.519531 2.382812 5.863281 1.847657 1.339844 4.292969 1.519532 6.316407.460938l18.933593-9.957032 18.9375 9.957032c2.019531 1.0625 4.472657.886718 6.320313-.457032s2.773437-3.617187 2.386718-5.867187l-3.617187-21.085937 15.324219-14.933594c1.632812-1.59375 2.222656-3.976563 1.515625-6.152344-.703125-2.171875-2.582031-3.753906-4.84375-4.082031l-21.171875-3.074219-9.464844-19.1875c-1.011719-2.046875-3.097656-3.34375-5.378906-3.34375-2.285156 0-4.371094 1.296875-5.382813 3.34375l-9.464843 19.1875-21.171876 3.074219c-2.261718.328125-4.136718 1.910156-4.84375 4.082031-.707031 2.175781-.117187 4.558594 1.519532 6.152344zm14.023438-16.824219c1.957031-.28125 3.644531-1.507813 4.519531-3.28125l5.484375-11.109375 5.484375 11.109375c.871093 1.769531 2.5625 3 4.515625 3.28125l12.261718 1.785156-8.875 8.644531c-1.414062 1.378906-2.058593 3.367188-1.722656 5.3125l2.09375 12.210938-10.96875-5.765625c-1.746094-.917969-3.835937-.917969-5.582031 0l-10.964844 5.765625 2.09375-12.210938c.332031-1.949218-.3125-3.933594-1.726562-5.3125l-8.871094-8.648437zm0 0"/></svg>